<?xml version="1.0" encoding="utf-8"?>
<!-- Generator: Adobe Illustrator 16.0.0, SVG Export Plug-In . SVG Version: 6.00 Build 0)  -->
<!DOCTYPE svg PUBLIC "-//W3C//DTD SVG 1.1//EN" "http://www.w3.org/Graphics/SVG/1.1/DTD/svg11.dtd">
<svg version="1.1" id="Layer_1" xmlns="http://www.w3.org/2000/svg" xmlns:xlink="http://www.w3.org/1999/xlink" x="0px" y="0px"
	 width="512px" height="512px" viewBox="0 0 512 512" enable-background="new 0 0 512 512" xml:space="preserve">
<path d="M304,320.031h208v128c0,35.344-28.656,64-64,64H64c-35.344,0-64-28.656-64-64v-128h208v32h96V320.031z M512,192.031v96H304
	v-32h-96v32H0v-96c0-35.344,28.656-64,64-64h80V91.844c-0.313,0.156-0.625,0.25-0.938,0.438c-15.625,8.313-35,2.375-43.313-13.188
	c-8.313-15.594-2.406-35,13.188-43.313c89.563-47.75,196.531-47.75,286.125,0c15.594,8.313,21.5,27.719,13.188,43.313
	c-5.781,10.813-16.844,16.938-28.281,16.938c-5.094,0-10.219-1.188-15.031-3.75c-0.313-0.188-0.625-0.281-0.938-0.438v36.188h80
	C483.344,128.031,512,156.688,512,192.031z M336,128.031V78.063c-51.813-18.375-108.188-18.375-160,0v49.969H336z M240,288.031v32
	h32v-32H240z"/>
</svg>
