<?xml version="1.0" encoding="utf-8"?>
<!-- Generated by IcoMoon.io -->
<!DOCTYPE svg PUBLIC "-//W3C//DTD SVG 1.1//EN" "http://www.w3.org/Graphics/SVG/1.1/DTD/svg11.dtd">
<svg version="1.1" xmlns="http://www.w3.org/2000/svg" xmlns:xlink="http://www.w3.org/1999/xlink" width="512" height="512" viewBox="0 0 512 512">
<g>
</g>
	<path d="M135.792 154.85l36.516-75.090h174.756l42.219 67.911z" fill="#000000" />
	<path d="M392.899 181.33h54.344v48.313h-54.344v-48.313z" fill="#000000" />
	<path d="M481.762 146.524h-451.522v269.414h124.221c-28.498-26.286-46.448-63.795-46.448-105.523 0-79.319 64.532-143.821 143.821-143.821 79.339 0 143.851 64.502 143.851 143.821 0 41.718-17.981 79.227-46.438 105.523h132.516v-269.414zM447.242 229.642h-54.344v-48.313h54.344v48.313z" fill="#000000" />
	<path d="M351.262 310.64c0 55.44-45.118 100.557-100.577 100.557s-100.567-45.118-100.567-100.557c0-55.46 45.107-100.567 100.567-100.567 55.45 0 100.577 45.107 100.577 100.567zM250.685 189.594c-66.755 0-121.047 54.282-121.047 121.047 0 66.745 54.303 121.037 121.047 121.037 66.755 0 121.058-54.303 121.058-121.037 0-66.765-54.303-121.047-121.058-121.047z" fill="#000000" />
</svg>
